<svg width="1728" height="138" viewBox="0 0 1728 138" fill="none" xmlns="http://www.w3.org/2000/svg">
<rect width="1728" height="138" fill="#DB0C10"/>
<path d="M-512.359 112.2C-518.679 112.2 -523.519 110.4 -526.879 106.8C-530.159 103.2 -531.799 98.12 -531.799 91.56V46.44C-531.799 39.88 -530.159 34.8 -526.879 31.2C-523.519 27.6 -518.679 25.8 -512.359 25.8C-506.039 25.8 -501.239 27.6 -497.959 31.2C-494.599 34.8 -492.919 39.88 -492.919 46.44V55.32H-505.399V45.6C-505.399 40.4 -507.599 37.8 -511.999 37.8C-516.399 37.8 -518.599 40.4 -518.599 45.6V92.52C-518.599 97.64 -516.399 100.2 -511.999 100.2C-507.599 100.2 -505.399 97.64 -505.399 92.52V79.68H-492.919V91.56C-492.919 98.12 -494.599 103.2 -497.959 106.8C-501.239 110.4 -506.039 112.2 -512.359 112.2ZM-485.021 27H-465.461C-458.661 27 -453.701 28.6 -450.581 31.8C-447.461 34.92 -445.901 39.76 -445.901 46.32V51.48C-445.901 60.2 -448.781 65.72 -454.541 68.04V68.28C-451.341 69.24 -449.101 71.2 -447.821 74.16C-446.461 77.12 -445.781 81.08 -445.781 86.04V100.8C-445.781 103.2 -445.701 105.16 -445.541 106.68C-445.381 108.12 -444.981 109.56 -444.341 111H-457.781C-458.261 109.64 -458.581 108.36 -458.741 107.16C-458.901 105.96 -458.981 103.8 -458.981 100.68V85.32C-458.981 81.48 -459.621 78.8 -460.901 77.28C-462.101 75.76 -464.221 75 -467.261 75H-471.821V111H-485.021V27ZM-467.021 63C-464.381 63 -462.421 62.32 -461.141 60.96C-459.781 59.6 -459.101 57.32 -459.101 54.12V47.64C-459.101 44.6 -459.661 42.4 -460.781 41.04C-461.821 39.68 -463.501 39 -465.821 39H-471.821V63H-467.021ZM-417.423 112.2C-423.823 112.2 -428.703 110.4 -432.063 106.8C-435.423 103.12 -437.103 97.88 -437.103 91.08V27H-423.903V92.04C-423.903 94.92 -423.343 97 -422.223 98.28C-421.023 99.56 -419.343 100.2 -417.183 100.2C-415.023 100.2 -413.383 99.56 -412.263 98.28C-411.063 97 -410.463 94.92 -410.463 92.04V27H-397.743V91.08C-397.743 97.88 -399.423 103.12 -402.783 106.8C-406.143 110.4 -411.023 112.2 -417.423 112.2ZM-388.342 27H-371.782L-358.942 77.28H-358.702V27H-346.942V111H-360.502L-376.342 49.68H-376.582V111H-388.342V27ZM-318.531 112.2C-324.851 112.2 -329.691 110.4 -333.051 106.8C-336.331 103.2 -337.971 98.12 -337.971 91.56V46.44C-337.971 39.88 -336.331 34.8 -333.051 31.2C-329.691 27.6 -324.851 25.8 -318.531 25.8C-312.211 25.8 -307.411 27.6 -304.131 31.2C-300.771 34.8 -299.091 39.88 -299.091 46.44V55.32H-311.571V45.6C-311.571 40.4 -313.771 37.8 -318.171 37.8C-322.571 37.8 -324.771 40.4 -324.771 45.6V92.52C-324.771 97.64 -322.571 100.2 -318.171 100.2C-313.771 100.2 -311.571 97.64 -311.571 92.52V79.68H-299.091V91.56C-299.091 98.12 -300.771 103.2 -304.131 106.8C-307.411 110.4 -312.211 112.2 -318.531 112.2ZM-291.193 27H-277.993V61.2H-263.833V27H-250.633V111H-263.833V73.2H-277.993V111H-291.193V27ZM-221.584 27H-202.744L-194.344 87.12H-194.104L-185.704 27H-166.864V111H-179.344V47.4H-179.584L-189.184 111H-200.224L-209.824 47.4H-210.064V111H-221.584V27ZM-146.814 27H-128.934L-115.254 111H-128.454L-130.854 94.32V94.56H-145.854L-148.254 111H-160.494L-146.814 27ZM-132.414 83.16L-138.294 41.64H-138.534L-144.294 83.16H-132.414ZM-92.0411 112.2C-98.4411 112.2 -103.281 110.4 -106.561 106.8C-109.841 103.12 -111.481 97.88 -111.481 91.08V86.28H-99.0011V92.04C-99.0011 97.48 -96.7211 100.2 -92.1611 100.2C-89.9211 100.2 -88.2411 99.56 -87.1211 98.28C-85.9211 96.92 -85.3211 94.76 -85.3211 91.8C-85.3211 88.28 -86.1211 85.2 -87.7211 82.56C-89.3211 79.84 -92.2811 76.6 -96.6011 72.84C-102.041 68.04 -105.841 63.72 -108.001 59.88C-110.161 55.96 -111.241 51.56 -111.241 46.68C-111.241 40.04 -109.561 34.92 -106.201 31.32C-102.841 27.64 -97.9611 25.8 -91.5611 25.8C-85.2411 25.8 -80.4811 27.64 -77.2811 31.32C-74.0011 34.92 -72.3611 40.12 -72.3611 46.92V50.4H-84.8411V46.08C-84.8411 43.2 -85.4011 41.12 -86.5211 39.84C-87.6411 38.48 -89.2811 37.8 -91.4411 37.8C-95.8411 37.8 -98.0411 40.48 -98.0411 45.84C-98.0411 48.88 -97.2411 51.72 -95.6411 54.36C-93.9611 57 -90.9611 60.2 -86.6411 63.96C-81.1211 68.76 -77.3211 73.12 -75.2411 77.04C-73.1611 80.96 -72.1211 85.56 -72.1211 90.84C-72.1211 97.72 -73.8411 103 -77.2811 106.68C-80.6411 110.36 -85.5611 112.2 -92.0411 112.2ZM-54.2327 39H-68.0327V27H-27.2327V39H-41.0327V111H-54.2327V39ZM-20.8417 27H15.1583V39H-7.64172V61.2H10.4783V73.2H-7.64172V99H15.1583V111H-20.8417V27ZM22.752 27H42.312C49.112 27 54.072 28.6 57.192 31.8C60.312 34.92 61.872 39.76 61.872 46.32V51.48C61.872 60.2 58.992 65.72 53.232 68.04V68.28C56.432 69.24 58.672 71.2 59.952 74.16C61.312 77.12 61.992 81.08 61.992 86.04V100.8C61.992 103.2 62.072 105.16 62.232 106.68C62.392 108.12 62.792 109.56 63.432 111H49.992C49.512 109.64 49.192 108.36 49.032 107.16C48.872 105.96 48.792 103.8 48.792 100.68V85.32C48.792 81.48 48.152 78.8 46.872 77.28C45.672 75.76 43.552 75 40.512 75H35.952V111H22.752V27ZM40.752 63C43.392 63 45.352 62.32 46.632 60.96C47.992 59.6 48.672 57.32 48.672 54.12V47.64C48.672 44.6 48.112 42.4 46.992 41.04C45.952 39.68 44.272 39 41.952 39H35.952V63H40.752ZM88.3105 112.2C81.9105 112.2 77.0705 110.4 73.7905 106.8C70.5105 103.12 68.8705 97.88 68.8705 91.08V86.28H81.3505V92.04C81.3505 97.48 83.6305 100.2 88.1905 100.2C90.4305 100.2 92.1105 99.56 93.2305 98.28C94.4305 96.92 95.0305 94.76 95.0305 91.8C95.0305 88.28 94.2305 85.2 92.6305 82.56C91.0305 79.84 88.0705 76.6 83.7505 72.84C78.3105 68.04 74.5105 63.72 72.3505 59.88C70.1905 55.96 69.1105 51.56 69.1105 46.68C69.1105 40.04 70.7905 34.92 74.1505 31.32C77.5105 27.64 82.3905 25.8 88.7905 25.8C95.1105 25.8 99.8705 27.64 103.07 31.32C106.35 34.92 107.99 40.12 107.99 46.92V50.4H95.5105V46.08C95.5105 43.2 94.9505 41.12 93.8305 39.84C92.7105 38.48 91.0705 37.8 88.9105 37.8C84.5105 37.8 82.3105 40.48 82.3105 45.84C82.3105 48.88 83.1105 51.72 84.7105 54.36C86.3905 57 89.3905 60.2 93.7105 63.96C99.2305 68.76 103.03 73.12 105.11 77.04C107.19 80.96 108.23 85.56 108.23 90.84C108.23 97.72 106.51 103 103.07 106.68C99.7105 110.36 94.7905 112.2 88.3105 112.2Z" fill="#FF8A00"/>
<path d="M178.999 37L182.725 55.0983L195 41.2873L189.176 58.8235L206.713 53.0003L192.902 65.2753L211 68.9995L192.902 72.7247L206.713 84.9997L189.176 79.1765L195 96.7127L182.725 82.9017L178.999 101L175.275 82.9017L163 96.7127L168.824 79.1765L151.287 84.9997L165.098 72.7247L147 68.9995L165.098 65.2753L151.287 53.0003L168.824 58.8235L163 41.2873L175.275 55.0983L178.999 37Z" fill="#FF8A00"/>
<path d="M270.52 112.2C264.2 112.2 259.36 110.4 256 106.8C252.72 103.2 251.08 98.12 251.08 91.56V46.44C251.08 39.88 252.72 34.8 256 31.2C259.36 27.6 264.2 25.8 270.52 25.8C276.84 25.8 281.64 27.6 284.92 31.2C288.28 34.8 289.96 39.88 289.96 46.44V55.32H277.48V45.6C277.48 40.4 275.28 37.8 270.88 37.8C266.48 37.8 264.28 40.4 264.28 45.6V92.52C264.28 97.64 266.48 100.2 270.88 100.2C275.28 100.2 277.48 97.64 277.48 92.52V79.68H289.96V91.56C289.96 98.12 288.28 103.2 284.92 106.8C281.64 110.4 276.84 112.2 270.52 112.2ZM297.858 27H317.418C324.218 27 329.178 28.6 332.298 31.8C335.418 34.92 336.978 39.76 336.978 46.32V51.48C336.978 60.2 334.098 65.72 328.338 68.04V68.28C331.538 69.24 333.778 71.2 335.058 74.16C336.418 77.12 337.098 81.08 337.098 86.04V100.8C337.098 103.2 337.178 105.16 337.338 106.68C337.498 108.12 337.898 109.56 338.538 111H325.098C324.618 109.64 324.298 108.36 324.138 107.16C323.978 105.96 323.898 103.8 323.898 100.68V85.32C323.898 81.48 323.258 78.8 321.978 77.28C320.778 75.76 318.658 75 315.618 75H311.058V111H297.858V27ZM315.858 63C318.498 63 320.458 62.32 321.738 60.96C323.098 59.6 323.777 57.32 323.777 54.12V47.64C323.777 44.6 323.218 42.4 322.098 41.04C321.058 39.68 319.378 39 317.058 39H311.058V63H315.858ZM346.256 27H359.456V111H346.256V27ZM386.502 112.2C380.102 112.2 375.262 110.4 371.982 106.8C368.702 103.12 367.062 97.88 367.062 91.08V86.28H379.542V92.04C379.542 97.48 381.822 100.2 386.382 100.2C388.622 100.2 390.302 99.56 391.422 98.28C392.622 96.92 393.222 94.76 393.222 91.8C393.222 88.28 392.422 85.2 390.822 82.56C389.222 79.84 386.262 76.6 381.942 72.84C376.502 68.04 372.702 63.72 370.542 59.88C368.382 55.96 367.302 51.56 367.302 46.68C367.302 40.04 368.982 34.92 372.342 31.32C375.702 27.64 380.582 25.8 386.982 25.8C393.302 25.8 398.062 27.64 401.262 31.32C404.542 34.92 406.182 40.12 406.182 46.92V50.4H393.702V46.08C393.702 43.2 393.142 41.12 392.022 39.84C390.902 38.48 389.262 37.8 387.102 37.8C382.702 37.8 380.502 40.48 380.502 45.84C380.502 48.88 381.302 51.72 382.902 54.36C384.582 57 387.582 60.2 391.902 63.96C397.422 68.76 401.222 73.12 403.302 77.04C405.382 80.96 406.422 85.56 406.422 90.84C406.422 97.72 404.702 103 401.262 106.68C397.902 110.36 392.982 112.2 386.502 112.2ZM413.99 27H433.43C439.99 27 444.91 28.76 448.19 32.28C451.47 35.8 453.11 40.96 453.11 47.76V56.04C453.11 62.84 451.47 68 448.19 71.52C444.91 75.04 439.99 76.8 433.43 76.8H427.19V111H413.99V27ZM433.43 64.8C435.59 64.8 437.19 64.2 438.23 63C439.35 61.8 439.91 59.76 439.91 56.88V46.92C439.91 44.04 439.35 42 438.23 40.8C437.19 39.6 435.59 39 433.43 39H427.19V64.8H433.43ZM471.813 75.24L455.853 27H469.893L478.893 57.84H479.133L488.133 27H500.973L485.013 75.24V111H471.813V75.24Z" fill="#FF8A00"/>
<path d="M569.999 37L573.725 55.0983L586 41.2873L580.176 58.8235L597.713 53.0003L583.902 65.2753L602 68.9995L583.902 72.7247L597.713 84.9997L580.176 79.1765L586 96.7127L573.725 82.9017L569.999 101L566.275 82.9017L554 96.7127L559.824 79.1765L542.287 84.9997L556.098 72.7247L538 68.9995L556.098 65.2753L542.287 53.0003L559.824 58.8235L554 41.2873L566.275 55.0983L569.999 37Z" fill="#FF8A00"/>
<path d="M646.423 111.48C644.023 111.48 641.983 111.32 640.303 111V99C641.583 99.32 643.023 99.48 644.623 99.48C647.263 99.48 649.223 98.84 650.503 97.56C651.783 96.2 652.423 94.16 652.423 91.44V27H665.623V91.08C665.623 97.96 664.023 103.08 660.823 106.44C657.703 109.8 652.903 111.48 646.423 111.48ZM694.261 112.2C687.861 112.2 682.981 110.4 679.621 106.8C676.261 103.12 674.581 97.88 674.581 91.08V27H687.781V92.04C687.781 94.92 688.341 97 689.461 98.28C690.661 99.56 692.341 100.2 694.501 100.2C696.661 100.2 698.301 99.56 699.421 98.28C700.621 97 701.221 94.92 701.221 92.04V27H713.941V91.08C713.941 97.88 712.261 103.12 708.901 106.8C705.541 110.4 700.661 112.2 694.261 112.2ZM723.342 27H736.542V111H723.342V27ZM765.028 112.2C758.708 112.2 753.868 110.4 750.508 106.8C747.228 103.2 745.588 98.12 745.588 91.56V46.44C745.588 39.88 747.228 34.8 750.508 31.2C753.868 27.6 758.708 25.8 765.028 25.8C771.348 25.8 776.148 27.6 779.428 31.2C782.788 34.8 784.468 39.88 784.468 46.44V55.32H771.988V45.6C771.988 40.4 769.788 37.8 765.388 37.8C760.988 37.8 758.788 40.4 758.788 45.6V92.52C758.788 97.64 760.988 100.2 765.388 100.2C769.788 100.2 771.988 97.64 771.988 92.52V79.68H784.468V91.56C784.468 98.12 782.788 103.2 779.428 106.8C776.148 110.4 771.348 112.2 765.028 112.2ZM803.431 75.24L787.471 27H801.511L810.511 57.84H810.751L819.751 27H832.591L816.631 75.24V111H803.431V75.24Z" fill="#FF8A00"/>
<path d="M901.999 37L905.725 55.0983L918 41.2873L912.176 58.8235L929.713 53.0003L915.902 65.2753L934 68.9995L915.902 72.7247L929.713 84.9997L912.176 79.1765L918 96.7127L905.725 82.9017L901.999 101L898.275 82.9017L886 96.7127L891.824 79.1765L874.287 84.9997L888.098 72.7247L870 68.9995L888.098 65.2753L874.287 53.0003L891.824 58.8235L886 41.2873L898.275 55.0983L901.999 37Z" fill="#FF8A00"/>
<path d="M975.205 27H988.405V111H975.205V27ZM998.291 27H1017.85C1024.65 27 1029.61 28.6 1032.73 31.8C1035.85 34.92 1037.41 39.76 1037.41 46.32V51.48C1037.41 60.2 1034.53 65.72 1028.77 68.04V68.28C1031.97 69.24 1034.21 71.2 1035.49 74.16C1036.85 77.12 1037.53 81.08 1037.53 86.04V100.8C1037.53 103.2 1037.61 105.16 1037.77 106.68C1037.93 108.12 1038.33 109.56 1038.97 111H1025.53C1025.05 109.64 1024.73 108.36 1024.57 107.16C1024.41 105.96 1024.33 103.8 1024.33 100.68V85.32C1024.33 81.48 1023.69 78.8 1022.41 77.28C1021.21 75.76 1019.09 75 1016.05 75H1011.49V111H998.291V27ZM1016.29 63C1018.93 63 1020.89 62.32 1022.17 60.96C1023.53 59.6 1024.21 57.32 1024.21 54.12V47.64C1024.21 44.6 1023.65 42.4 1022.53 41.04C1021.49 39.68 1019.81 39 1017.49 39H1011.49V63H1016.29ZM1046.69 27H1066.25C1073.05 27 1078.01 28.6 1081.13 31.8C1084.25 34.92 1085.81 39.76 1085.81 46.32V51.48C1085.81 60.2 1082.93 65.72 1077.17 68.04V68.28C1080.37 69.24 1082.61 71.2 1083.89 74.16C1085.25 77.12 1085.93 81.08 1085.93 86.04V100.8C1085.93 103.2 1086.01 105.16 1086.17 106.68C1086.33 108.12 1086.73 109.56 1087.37 111H1073.93C1073.45 109.64 1073.13 108.36 1072.97 107.16C1072.81 105.96 1072.73 103.8 1072.73 100.68V85.32C1072.73 81.48 1072.09 78.8 1070.81 77.28C1069.61 75.76 1067.49 75 1064.45 75H1059.89V111H1046.69V27ZM1064.69 63C1067.33 63 1069.29 62.32 1070.57 60.96C1071.93 59.6 1072.61 57.32 1072.61 54.12V47.64C1072.61 44.6 1072.05 42.4 1070.93 41.04C1069.89 39.68 1068.21 39 1065.89 39H1059.89V63H1064.69ZM1095.09 27H1131.09V39H1108.29V61.2H1126.41V73.2H1108.29V99H1131.09V111H1095.09V27ZM1156.08 112.2C1149.68 112.2 1144.84 110.4 1141.56 106.8C1138.28 103.12 1136.64 97.88 1136.64 91.08V86.28H1149.12V92.04C1149.12 97.48 1151.4 100.2 1155.96 100.2C1158.2 100.2 1159.88 99.56 1161 98.28C1162.2 96.92 1162.8 94.76 1162.8 91.8C1162.8 88.28 1162 85.2 1160.4 82.56C1158.8 79.84 1155.84 76.6 1151.52 72.84C1146.08 68.04 1142.28 63.72 1140.12 59.88C1137.96 55.96 1136.88 51.56 1136.88 46.68C1136.88 40.04 1138.56 34.92 1141.92 31.32C1145.28 27.64 1150.16 25.8 1156.56 25.8C1162.88 25.8 1167.64 27.64 1170.84 31.32C1174.12 34.92 1175.76 40.12 1175.76 46.92V50.4H1163.28V46.08C1163.28 43.2 1162.72 41.12 1161.6 39.84C1160.48 38.48 1158.84 37.8 1156.68 37.8C1152.28 37.8 1150.08 40.48 1150.08 45.84C1150.08 48.88 1150.88 51.72 1152.48 54.36C1154.16 57 1157.16 60.2 1161.48 63.96C1167 68.76 1170.8 73.12 1172.88 77.04C1174.96 80.96 1176 85.56 1176 90.84C1176 97.72 1174.28 103 1170.84 106.68C1167.48 110.36 1162.56 112.2 1156.08 112.2ZM1183.56 27H1196.76V111H1183.56V27ZM1223.81 112.2C1217.41 112.2 1212.57 110.4 1209.29 106.8C1206.01 103.12 1204.37 97.88 1204.37 91.08V86.28H1216.85V92.04C1216.85 97.48 1219.13 100.2 1223.69 100.2C1225.93 100.2 1227.61 99.56 1228.73 98.28C1229.93 96.92 1230.53 94.76 1230.53 91.8C1230.53 88.28 1229.73 85.2 1228.13 82.56C1226.53 79.84 1223.57 76.6 1219.25 72.84C1213.81 68.04 1210.01 63.72 1207.85 59.88C1205.69 55.96 1204.61 51.56 1204.61 46.68C1204.61 40.04 1206.29 34.92 1209.65 31.32C1213.01 27.64 1217.89 25.8 1224.29 25.8C1230.61 25.8 1235.37 27.64 1238.57 31.32C1241.85 34.92 1243.49 40.12 1243.49 46.92V50.4H1231.01V46.08C1231.01 43.2 1230.45 41.12 1229.33 39.84C1228.21 38.48 1226.57 37.8 1224.41 37.8C1220.01 37.8 1217.81 40.48 1217.81 45.84C1217.81 48.88 1218.61 51.72 1220.21 54.36C1221.89 57 1224.89 60.2 1229.21 63.96C1234.73 68.76 1238.53 73.12 1240.61 77.04C1242.69 80.96 1243.73 85.56 1243.73 90.84C1243.73 97.72 1242.01 103 1238.57 106.68C1235.21 110.36 1230.29 112.2 1223.81 112.2ZM1261.62 39H1247.82V27H1288.62V39H1274.82V111H1261.62V39ZM1295.01 27H1308.21V111H1295.01V27ZM1318.1 27H1338.02C1344.82 27 1349.78 28.6 1352.9 31.8C1356.02 34.92 1357.58 39.76 1357.58 46.32V49.68C1357.58 54 1356.86 57.52 1355.42 60.24C1354.06 62.96 1351.94 64.92 1349.06 66.12V66.36C1355.62 68.6 1358.9 74.44 1358.9 83.88V91.08C1358.9 97.56 1357.18 102.52 1353.74 105.96C1350.38 109.32 1345.42 111 1338.86 111H1318.1V27ZM1336.46 61.2C1339.1 61.2 1341.06 60.52 1342.34 59.16C1343.7 57.8 1344.38 55.52 1344.38 52.32V47.64C1344.38 44.6 1343.82 42.4 1342.7 41.04C1341.66 39.68 1339.98 39 1337.66 39H1331.3V61.2H1336.46ZM1338.86 99C1341.18 99 1342.9 98.4 1344.02 97.2C1345.14 95.92 1345.7 93.76 1345.7 90.72V83.4C1345.7 79.56 1345.02 76.92 1343.66 75.48C1342.38 73.96 1340.22 73.2 1337.18 73.2H1331.3V99H1338.86ZM1366.61 27H1379.81V99H1401.53V111H1366.61V27ZM1407.86 27H1443.86V39H1421.06V61.2H1439.18V73.2H1421.06V99H1443.86V111H1407.86V27ZM1470.67 27H1505.59V39H1483.87V62.4H1500.91V74.4H1483.87V111H1470.67V27ZM1511.92 27H1525.12V99H1546.84V111H1511.92V27ZM1563.84 27H1581.72L1595.4 111H1582.2L1579.8 94.32V94.56H1564.8L1562.4 111H1550.16L1563.84 27ZM1578.24 83.16L1572.36 41.64H1572.12L1566.36 83.16H1578.24ZM1594.93 27H1608.25L1616.89 92.16H1617.13L1625.77 27H1637.89L1625.17 111H1607.65L1594.93 27ZM1663.07 112.2C1656.59 112.2 1651.63 110.36 1648.19 106.68C1644.75 103 1643.03 97.8 1643.03 91.08V46.92C1643.03 40.2 1644.75 35 1648.19 31.32C1651.63 27.64 1656.59 25.8 1663.07 25.8C1669.55 25.8 1674.51 27.64 1677.95 31.32C1681.39 35 1683.11 40.2 1683.11 46.92V91.08C1683.11 97.8 1681.39 103 1677.95 106.68C1674.51 110.36 1669.55 112.2 1663.07 112.2ZM1663.07 100.2C1667.63 100.2 1669.91 97.44 1669.91 91.92V46.08C1669.91 40.56 1667.63 37.8 1663.07 37.8C1658.51 37.8 1656.23 40.56 1656.23 46.08V91.92C1656.23 97.44 1658.51 100.2 1663.07 100.2ZM1692.04 27H1711.6C1718.4 27 1723.36 28.6 1726.48 31.8C1729.6 34.92 1731.16 39.76 1731.16 46.32V51.48C1731.16 60.2 1728.28 65.72 1722.52 68.04V68.28C1725.72 69.24 1727.96 71.2 1729.24 74.16C1730.6 77.12 1731.28 81.08 1731.28 86.04V100.8C1731.28 103.2 1731.36 105.16 1731.52 106.68C1731.68 108.12 1732.08 109.56 1732.72 111H1719.28C1718.8 109.64 1718.48 108.36 1718.32 107.16C1718.16 105.96 1718.08 103.8 1718.08 100.68V85.32C1718.08 81.48 1717.44 78.8 1716.16 77.28C1714.96 75.76 1712.84 75 1709.8 75H1705.24V111H1692.04V27ZM1710.04 63C1712.68 63 1714.64 62.32 1715.92 60.96C1717.28 59.6 1717.96 57.32 1717.96 54.12V47.64C1717.96 44.6 1717.4 42.4 1716.28 41.04C1715.24 39.68 1713.56 39 1711.24 39H1705.24V63H1710.04ZM1741.52 62.04V27H1754.72V62.04L1753.04 88.8H1743.2L1741.52 62.04ZM1741.76 98.28H1754.48V111H1741.76V98.28Z" fill="#FF8A00"/>
</svg>
